<svg xmlns="http://www.w3.org/2000/svg" xmlns:xlink="http://www.w3.org/1999/xlink" version="1.1" x="0px" y="0px" viewBox="0 0 48 60" enable-background="new 0 0 48 48" xml:space="preserve"><g><path d="M26.93,34.302c-4.587,0-8.32-3.733-8.32-8.321c0-4.588,3.732-8.321,8.32-8.321c4.59,0.001,8.324,3.734,8.324,8.321   C35.254,30.568,31.52,34.302,26.93,34.302z M26.93,19.659c-3.485,0-6.32,2.836-6.32,6.321s2.835,6.321,6.32,6.321   c3.487,0,6.324-2.836,6.324-6.321C33.254,22.496,30.417,19.66,26.93,19.659z"/><path d="M29.943,11.734c-2.925,0-5.305-2.381-5.305-5.307c0-2.926,2.38-5.306,5.305-5.306c2.927,0,5.309,2.38,5.309,5.306   C35.252,9.353,32.87,11.734,29.943,11.734z M29.943,3.121c-1.822,0-3.305,1.483-3.305,3.306c0,1.824,1.482,3.307,3.305,3.307   c1.824,0,3.309-1.483,3.309-3.307C33.252,4.604,31.768,3.121,29.943,3.121z"/><path d="M42.262,46.881c-3.164,0-5.738-2.574-5.738-5.738s2.574-5.738,5.738-5.738S48,37.979,48,41.143   S45.426,46.881,42.262,46.881z M42.262,37.404c-2.062,0-3.738,1.677-3.738,3.738s1.677,3.738,3.738,3.738S46,43.204,46,41.143   S44.323,37.404,42.262,37.404z"/><path d="M6.772,45.846C3.038,45.846,0,42.808,0,39.074c0-3.734,3.038-6.772,6.772-6.772s6.772,3.038,6.772,6.772   C13.544,42.808,10.506,45.846,6.772,45.846z M6.772,34.302C4.141,34.302,2,36.442,2,39.074c0,2.631,2.141,4.771,4.772,4.771   s4.772-2.141,4.772-4.771C11.544,36.442,9.403,34.302,6.772,34.302z"/><path d="M26.931,18.797c-0.067,0-0.136-0.007-0.204-0.021c-0.541-0.112-0.889-0.642-0.776-1.182l1.467-7.064   c0.113-0.542,0.642-0.891,1.183-0.776c0.541,0.112,0.889,0.642,0.776,1.182L27.909,18C27.811,18.472,27.395,18.797,26.931,18.797z"/><path d="M38.845,38.863c-0.218,0-0.437-0.07-0.62-0.217l-7.568-6c-0.433-0.343-0.506-0.972-0.162-1.404   c0.343-0.433,0.972-0.507,1.404-0.162l7.568,6c0.433,0.343,0.506,0.972,0.162,1.404C39.432,38.733,39.14,38.863,38.845,38.863z"/><path d="M11.854,35.863c-0.323,0-0.64-0.156-0.833-0.444c-0.307-0.46-0.183-1.081,0.276-1.388l7.757-5.178   c0.458-0.306,1.081-0.183,1.387,0.276c0.307,0.46,0.183,1.081-0.276,1.388l-7.757,5.178C12.238,35.809,12.045,35.863,11.854,35.863   z"/></g><text x="0" y="63" fill="#000000" font-size="5px" font-weight="bold" font-family="'Helvetica Neue', Helvetica, Arial-Unicode, Arial, Sans-serif">Created by Creative Stall</text><text x="0" y="68" fill="#000000" font-size="5px" font-weight="bold" font-family="'Helvetica Neue', Helvetica, Arial-Unicode, Arial, Sans-serif">from the Noun Project</text></svg>